<?xml version="1.0" encoding="utf-8"?>
<!-- Generator: Adobe Illustrator 23.0.4, SVG Export Plug-In . SVG Version: 6.00 Build 0)  -->
<svg version="1.1" id="Calque_1" xmlns="http://www.w3.org/2000/svg" xmlns:xlink="http://www.w3.org/1999/xlink" x="0px" y="0px"
	 viewBox="0 0 34 32" style="enable-background:new 0 0 34 32;" xml:space="preserve">
<style type="text/css">
	.st0{fill:#444444;}
</style>
<path class="st0" d="M19.3,16c0,1.3-1.1,2.4-2.4,2.4s-2.4-1.1-2.4-2.4s1.1-2.4,2.4-2.4S19.3,14.7,19.3,16z"/>
<path class="st0" d="M16.9,24.8c1.9,1.8,3.7,2.9,5.2,2.9c0.5,0,1-0.1,1.3-0.3c1.3-0.8,1.8-2.7,1.4-5.5c-0.1-0.5-0.2-1-0.3-1.5
	c0.5-0.2,1-0.3,1.4-0.5c2.6-1,4-2.4,4-3.9c0-1.5-1.4-2.9-4-3.9c-0.5-0.2-0.9-0.3-1.4-0.5c0.1-0.5,0.2-1,0.3-1.5
	c0.4-2.8-0.1-4.8-1.4-5.5c-0.4-0.2-0.8-0.3-1.3-0.3c-1.5,0-3.3,1.1-5.2,2.9c-1.9-1.8-3.7-2.9-5.2-2.9c-0.5,0-1,0.1-1.3,0.3
	C9,5.4,8.5,7.3,9,10.1c0.1,0.5,0.2,1,0.3,1.5c-0.5,0.2-1,0.3-1.4,0.5c-2.6,1-4,2.4-4,3.9c0,1.5,1.4,2.9,4,3.9
	c0.5,0.2,0.9,0.3,1.4,0.5c-0.1,0.5-0.2,1-0.3,1.5c-0.4,2.8,0.1,4.7,1.4,5.5c0.4,0.2,0.8,0.3,1.3,0.3C13.2,27.7,15,26.6,16.9,24.8z
	 M15.5,21.3c0.5,0,1,0,1.4,0s1,0,1.4,0c-0.5,0.6-0.9,1.2-1.4,1.7C16.4,22.5,15.9,21.9,15.5,21.3z M12.3,18.7
	c0.3,0.4,0.5,0.8,0.8,1.3c-0.8-0.1-1.5-0.2-2.3-0.4c0.2-0.7,0.5-1.4,0.8-2.1C11.8,17.8,12,18.2,12.3,18.7L12.3,18.7z M10.8,12.5
	c0.7-0.2,1.5-0.3,2.3-0.4c-0.3,0.4-0.5,0.8-0.8,1.3s-0.5,0.8-0.7,1.3C11.3,13.9,11,13.2,10.8,12.5L10.8,12.5z M12.2,16
	c0.3-0.7,0.7-1.4,1.1-2.1c0.4-0.7,0.8-1.3,1.3-2c1.6-0.1,3.1-0.1,4.7,0c0.5,0.7,0.9,1.3,1.3,2c0.4,0.7,0.8,1.4,1.1,2.1
	c-0.3,0.7-0.7,1.4-1.1,2.1c-0.4,0.7-0.8,1.3-1.3,2c-1.6,0.1-3.1,0.1-4.7,0c-0.4-0.7-0.9-1.3-1.3-2C12.9,17.4,12.6,16.7,12.2,16z
	 M22.3,14.6l-0.7-1.3c-0.3-0.4-0.5-0.8-0.8-1.3c0.8,0.1,1.5,0.2,2.3,0.4C22.8,13.2,22.6,13.9,22.3,14.6L22.3,14.6z M22.3,17.4
	c0.3,0.7,0.6,1.4,0.8,2.1c-0.7,0.2-1.5,0.3-2.3,0.4c0.3-0.4,0.5-0.8,0.8-1.3C21.8,18.3,22,17.8,22.3,17.4L22.3,17.4z M22.9,26.3
	c-0.2,0.1-0.5,0.2-0.7,0.2c-1.3,0-2.8-1-4.4-2.6c0.8-0.9,1.5-1.8,2.2-2.7c1.2-0.1,2.3-0.3,3.4-0.5c0.1,0.5,0.2,0.9,0.3,1.4
	C24,24.2,23.7,25.8,22.9,26.3L22.9,26.3z M24.2,12.7c2.9,0.8,4.6,2.1,4.6,3.2c0,1-1.2,2-3.3,2.8c-0.4,0.2-0.9,0.3-1.3,0.4
	c-0.3-1.1-0.8-2.2-1.3-3.2C23.5,14.9,23.9,13.8,24.2,12.7L24.2,12.7z M22.1,5.5c0.3,0,0.5,0.1,0.7,0.2c0.8,0.5,1.2,2,0.8,4.2
	c-0.1,0.4-0.2,0.9-0.3,1.4c-1.1-0.2-2.3-0.4-3.4-0.5c-0.7-1-1.4-1.9-2.2-2.7C19.3,6.5,20.9,5.5,22.1,5.5L22.1,5.5z M18.4,10.7
	c-0.5,0-1,0-1.4,0s-1,0-1.4,0c0.5-0.6,1-1.2,1.4-1.7C17.4,9.5,17.9,10.1,18.4,10.7z M11,5.7c0.2-0.1,0.5-0.2,0.7-0.2
	c1.3,0,2.8,1,4.4,2.6c-0.8,0.9-1.5,1.8-2.2,2.7c-1.2,0.1-2.3,0.3-3.4,0.5c-0.1-0.5-0.2-0.9-0.3-1.4C9.8,7.7,10.1,6.2,11,5.7L11,5.7z
	 M9.6,19.2C6.8,18.4,5,17.1,5,16c0-1,1.2-2,3.3-2.8c0.4-0.2,0.9-0.3,1.3-0.4c0.3,1.1,0.8,2.2,1.3,3.2C10.4,17.1,9.9,18.2,9.6,19.2
	L9.6,19.2z M10.2,22.1c0.1-0.4,0.2-0.9,0.3-1.4c1.1,0.2,2.2,0.4,3.4,0.5c0.7,1,1.4,1.9,2.2,2.7c-1.5,1.5-3.1,2.6-4.4,2.6
	c-0.3,0-0.5-0.1-0.7-0.2C10.1,25.8,9.8,24.2,10.2,22.1L10.2,22.1z"/>
</svg>
