<?xml version="1.0" encoding="UTF-8"?>
<svg width="139px" height="82px" viewBox="0 0 139 82" version="1.1" xmlns="http://www.w3.org/2000/svg" xmlns:xlink="http://www.w3.org/1999/xlink">
    <!-- Generator: Sketch 54.1 (76490) - https://sketchapp.com -->
    <title>Pencil Case</title>
    <desc>Created with Sketch.</desc>
    <g id="Page-1" stroke="none" stroke-width="1" fill="none" fill-rule="evenodd">
        <g id="Desktop-HD-Copy" transform="translate(-1218.000000, -393.000000)">
            <g id="Webdesign" transform="translate(1107.000000, 339.000000)">
                <g id="Pencil-Case" transform="translate(112.000000, 55.000000)">
                    <path d="M120.969829,79.5765551 L15.5846857,79.5765551 C10.4624,79.5765551 6.31023673,75.4243918 6.31023673,70.3024327 L6.31023673,31.3600653 C6.31023673,26.2381061 10.4624,22.0862694 15.5846857,22.0862694 L120.969829,22.0862694 C126.092114,22.0862694 130.243951,26.2381061 130.243951,31.3600653 L130.243951,70.3024327 C130.243951,75.4243918 126.092114,79.5765551 120.969829,79.5765551" id="Fill-1" fill="#FFFFFF"></path>
                    <path d="M120.969829,79.5765551 L15.5846857,79.5765551 C10.4624,79.5765551 6.31023673,75.4243918 6.31023673,70.3024327 L6.31023673,31.3600653 C6.31023673,26.2381061 10.4624,22.0862694 15.5846857,22.0862694 L120.969829,22.0862694 C126.092114,22.0862694 130.243951,26.2381061 130.243951,31.3600653 L130.243951,70.3024327 C130.243951,75.4243918 126.092114,79.5765551 120.969829,79.5765551 Z" id="Stroke-3" stroke="#CECECE" stroke-width="2" stroke-linecap="round" stroke-linejoin="round"></path>
                    <path d="M120.295739,45.3396245 L16.2588408,45.3396245 C14.9471673,45.3396245 13.8839837,46.4028082 13.8839837,47.7141551 L13.8839837,50.6013388 L122.670269,50.6013388 L122.670269,47.7141551 C122.670269,46.4028082 121.607412,45.3396245 120.295739,45.3396245" id="Fill-5" fill="#EFEFEF"></path>
                    <path d="M120.295739,45.3396245 L16.2588408,45.3396245 C14.9471673,45.3396245 13.8839837,46.4028082 13.8839837,47.7141551 L13.8839837,50.6013388 L122.670269,50.6013388 L122.670269,47.7141551 C122.670269,46.4028082 121.607412,45.3396245 120.295739,45.3396245 Z" id="Stroke-7" stroke="#CECECE" stroke-width="2" stroke-linecap="round" stroke-linejoin="round"></path>
                    <path d="M21.8461061,48.0068898 L21.8461061,50.6217469" id="Stroke-9" stroke="#CECECE" stroke-width="2" stroke-linecap="round" stroke-linejoin="bevel"></path>
                    <path d="M32.0230857,48.0068898 L32.0230857,50.6217469" id="Stroke-11" stroke="#CECECE" stroke-width="2" stroke-linecap="round" stroke-linejoin="bevel"></path>
                    <path d="M42.0517878,48.0068898 L42.0517878,50.6217469" id="Stroke-13" stroke="#CECECE" stroke-width="2" stroke-linecap="round" stroke-linejoin="bevel"></path>
                    <path d="M52.2287673,48.0068898 L52.2287673,50.6217469" id="Stroke-15" stroke="#CECECE" stroke-width="2" stroke-linecap="round" stroke-linejoin="bevel"></path>
                    <path d="M62.6276898,48.0068898 L62.6276898,50.6217469" id="Stroke-17" stroke="#CECECE" stroke-width="2" stroke-linecap="round" stroke-linejoin="bevel"></path>
                    <path d="M72.8043429,48.0068898 L72.8043429,50.6217469" id="Stroke-19" stroke="#CECECE" stroke-width="2" stroke-linecap="round" stroke-linejoin="bevel"></path>
                    <path d="M82.8333388,48.0068898 L82.8333388,50.6217469" id="Stroke-21" stroke="#CECECE" stroke-width="2" stroke-linecap="round" stroke-linejoin="bevel"></path>
                    <path d="M93.0103184,48.0068898 L93.0103184,50.6217469" id="Stroke-23" stroke="#CECECE" stroke-width="2" stroke-linecap="round" stroke-linejoin="bevel"></path>
                    <path d="M27.0457143,48.0068898 L27.0457143,50.6217469" id="Stroke-25" stroke="#CECECE" stroke-width="2" stroke-linecap="round" stroke-linejoin="bevel"></path>
                    <path d="M37.2224,48.0068898 L37.2224,50.6217469" id="Stroke-27" stroke="#CECECE" stroke-width="2" stroke-linecap="round" stroke-linejoin="bevel"></path>
                    <path d="M47.2513959,48.0068898 L47.2513959,50.6217469" id="Stroke-29" stroke="#CECECE" stroke-width="2" stroke-linecap="round" stroke-linejoin="bevel"></path>
                    <path d="M57.428049,48.0068898 L57.428049,50.6217469" id="Stroke-31" stroke="#CECECE" stroke-width="2" stroke-linecap="round" stroke-linejoin="bevel"></path>
                    <path d="M67.8269714,48.0068898 L67.8269714,50.6217469" id="Stroke-33" stroke="#CECECE" stroke-width="2" stroke-linecap="round" stroke-linejoin="bevel"></path>
                    <path d="M78.003951,48.0068898 L78.003951,50.6217469" id="Stroke-35" stroke="#CECECE" stroke-width="2" stroke-linecap="round" stroke-linejoin="bevel"></path>
                    <path d="M88.0326531,48.0068898 L88.0326531,50.6217469" id="Stroke-37" stroke="#CECECE" stroke-width="2" stroke-linecap="round" stroke-linejoin="bevel"></path>
                    <path d="M98.2096327,48.0068898 L98.2096327,50.6217469" id="Stroke-39" stroke="#CECECE" stroke-width="2" stroke-linecap="round" stroke-linejoin="bevel"></path>
                    <path d="M102.969829,48.0068898 L102.969829,50.6217469" id="Stroke-41" stroke="#CECECE" stroke-width="2" stroke-linecap="round" stroke-linejoin="bevel"></path>
                    <path d="M120.786482,66.8003918 L110.754808,77.0648816 C110.22191,77.6105143 109.346808,77.6206367 108.801176,77.0874122 L42.8498286,12.6345143 C42.3038694,12.1009633 42.2940735,11.2261878 42.827298,10.6805551 L52.8589714,0.416065306 C53.3921959,-0.129893878 54.2669714,-0.139689796 54.8126041,0.393534694 L120.763951,64.8464327 C121.30991,65.3796571 121.319706,66.2547592 120.786482,66.8003918" id="Fill-43" fill="#FFFFFF"></path>
                    <path d="M120.786482,66.8003918 L110.754808,77.0648816 C110.22191,77.6105143 109.346808,77.6206367 108.801176,77.0874122 L42.8498286,12.6345143 C42.3038694,12.1009633 42.2940735,11.2261878 42.827298,10.6805551 L52.8589714,0.416065306 C53.3921959,-0.129893878 54.2669714,-0.139689796 54.8126041,0.393534694 L120.763951,64.8464327 C121.30991,65.3796571 121.319706,66.2547592 120.786482,66.8003918 Z" id="Stroke-45" stroke="#CECECE" stroke-width="2" stroke-linecap="round" stroke-linejoin="round"></path>
                    <path d="M58.5001143,27.9290776 L64.8148898,21.4676898" id="Stroke-47" stroke="#CECECE" stroke-width="2" stroke-linecap="round" stroke-linejoin="round"></path>
                    <path d="M99.4653714,55.3313306 L93.1509224,61.7927184" id="Stroke-49" stroke="#CECECE" stroke-width="2" stroke-linecap="round" stroke-linejoin="round"></path>
                    <polyline id="Stroke-51" stroke="#CECECE" stroke-width="2" stroke-linecap="round" stroke-linejoin="round" points="91.3387755 47.3890612 85.024 53.850449 66.6269388 35.8713469 72.9417143 29.4099592"></polyline>
                    <path d="M49.9988571,19.6210286 L56.2267755,13.2481306" id="Stroke-53" stroke="#CECECE" stroke-width="2" stroke-linecap="round" stroke-linejoin="round"></path>
                    <path d="M107.880229,63.7280327 L101.65231,70.1009306" id="Stroke-55" stroke="#CECECE" stroke-width="2" stroke-linecap="round" stroke-linejoin="round"></path>
                    <path d="M75.8253714,44.8609959 L82.1401469,38.3992816" id="Stroke-57" stroke="#CECECE" stroke-width="2" stroke-linecap="round" stroke-linejoin="round"></path>
                    <path d="M54.2545959,23.7801469 L57.4121469,20.5494531" id="Stroke-59" stroke="#CECECE" stroke-width="2" stroke-linecap="round" stroke-linejoin="round"></path>
                    <path d="M92.3279347,54.6722286 L89.1707102,57.903249" id="Stroke-61" stroke="#CECECE" stroke-width="2" stroke-linecap="round" stroke-linejoin="round"></path>
                    <path d="M62.6468245,31.9816816 L65.804049,28.7509878" id="Stroke-63" stroke="#CECECE" stroke-width="2" stroke-linecap="round" stroke-linejoin="round"></path>
                    <path d="M83.6704,46.2114286 L80.5131755,49.4421224" id="Stroke-65" stroke="#CECECE" stroke-width="2" stroke-linecap="round" stroke-linejoin="round"></path>
                    <path d="M46.0186122,15.7313633 L49.1327347,12.5450776" id="Stroke-67" stroke="#CECECE" stroke-width="2" stroke-linecap="round" stroke-linejoin="round"></path>
                    <path d="M100.785829,63.0247184 L97.6720327,66.2110041" id="Stroke-69" stroke="#CECECE" stroke-width="2" stroke-linecap="round" stroke-linejoin="round"></path>
                    <path d="M71.3145469,40.4526694 L74.472098,37.221649" id="Stroke-71" stroke="#CECECE" stroke-width="2" stroke-linecap="round" stroke-linejoin="round"></path>
                    <path d="M105.543804,73.9040327 L108.6576,70.7177469" id="Stroke-73" stroke="#CECECE" stroke-width="2" stroke-linecap="round" stroke-linejoin="round"></path>
                    <polygon id="Fill-75" fill="#FFFFFF" points="83.6474449 69.6706286 86.8787918 62.6028735 13.5511184 29.0740571 0.332506122 27.3026286 10.3194449 36.1418122"></polygon>
                    <polygon id="Stroke-77" stroke="#CECECE" stroke-width="2" stroke-linecap="round" stroke-linejoin="round" points="83.6474449 69.6706286 86.8787918 62.6028735 13.5511184 29.0740571 0.332506122 27.3026286 10.3194449 36.1418122"></polygon>
                    <polygon id="Fill-79" fill="#EFEFEF" points="3.91115102 30.4698776 0.33237551 27.3025306 5.06902857 27.9373061"></polygon>
                    <polygon id="Stroke-81" stroke="#CECECE" stroke-width="2" stroke-linecap="round" stroke-linejoin="round" points="3.91115102 30.4698776 0.33237551 27.3025306 5.06902857 27.9373061"></polygon>
                    <polygon id="Fill-83" fill="#FFFFFF" points="13.5776327 29.0861061 86.8788571 62.6028408 83.6475102 69.6705959 10.3459592 36.1538612"></polygon>
                    <polygon id="Stroke-85" stroke="#CECECE" stroke-width="2" stroke-linecap="round" stroke-linejoin="round" points="13.5776327 29.0861061 86.8788571 62.6028408 83.6475102 69.6705959 10.3459592 36.1538612"></polygon>
                    <path d="M11.9615347,32.6199184 L85.2630857,66.1366531" id="Stroke-87" stroke="#CECECE" stroke-width="2" stroke-linecap="round" stroke-linejoin="round"></path>
                    <path d="M103.611722,64.0548571 L103.624457,64.0267755 C103.973192,63.2636735 103.637518,62.3617959 102.87409,62.0130612 L96.9867429,59.3208163 L95.7103347,62.1129796 L101.597682,64.804898 C102.360784,65.1539592 103.262661,64.8179592 103.611722,64.0548571" id="Fill-89" fill="#EFEFEF"></path>
                    <path d="M103.611722,64.0548571 L103.624457,64.0267755 C103.973192,63.2636735 103.637518,62.3617959 102.87409,62.0130612 L96.9867429,59.3208163 L95.7103347,62.1129796 L101.597682,64.804898 C102.360784,65.1539592 103.262661,64.8179592 103.611722,64.0548571 Z" id="Stroke-91" stroke="#CECECE" stroke-width="2" stroke-linecap="round" stroke-linejoin="round"></path>
                    <path d="M18.2517224,25.0502531 L31.4445388,31.0825796" id="Stroke-93" stroke="#CECECE" stroke-width="2" stroke-linecap="round" stroke-linejoin="round"></path>
                    <path d="M98.0841469,57.2806204 C100.016555,58.1642122 100.866841,60.4466612 99.983249,62.3787429 L99.9509224,62.4496 C99.0673306,64.3816816 96.7848816,65.2319673 94.8528,64.3483755 L25.049698,32.4313143 C18.3185959,29.3534367 21.5502694,22.2860082 28.2813714,25.3635592 L98.0841469,57.2806204 Z" id="Fill-95" fill="#EFEFEF"></path>
                    <path d="M28.2813714,25.3635592 L98.0841469,57.2806204 C100.016555,58.1642122 100.866841,60.4466612 99.983249,62.3787429 L99.9509224,62.4496 C99.0673306,64.3816816 96.7848816,65.2319673 94.8528,64.3483755 L25.049698,32.4313143 C18.3185959,29.3534367 21.5502694,22.2860082 28.2813714,25.3635592 Z" id="Stroke-97" stroke="#CECECE" stroke-width="2" stroke-linecap="round" stroke-linejoin="round"></path>
                    <path d="M24.2938122,32.040849 C18.7747918,28.9068082 21.6188735,22.8225633 27.6603429,25.1040327 C26.4205061,27.3518694 25.3530776,29.6937469 24.2938122,32.040849" id="Fill-99" fill="#EFEFEF"></path>
                    <path d="M24.2938122,32.040849 C18.7747918,28.9068082 21.6188735,22.8225633 27.6603429,25.1040327 C26.4205061,27.3518694 25.3530776,29.6937469 24.2938122,32.040849 Z" id="Stroke-101" stroke="#CECECE" stroke-width="2" stroke-linecap="round" stroke-linejoin="round"></path>
                    <path d="M68.8697143,43.9225469 L98.0844082,57.2805878 C100.01649,58.1641796 100.866776,60.4466286 99.9831837,62.3787102 L99.9511837,62.4495673 C99.0672653,64.381649 96.7848163,65.2319347 94.8527347,64.3483429 L65.6383673,50.990302 L68.8697143,43.9225469 Z" id="Fill-103" fill="#EFEFEF"></path>
                    <path d="M68.8697143,43.9225469 L98.0844082,57.2805878 C100.01649,58.1641796 100.866776,60.4466286 99.9831837,62.3787102 L99.9511837,62.4495673 C99.0672653,64.381649 96.7848163,65.2319347 94.8527347,64.3483429 L65.6383673,50.990302 L68.8697143,43.9225469 Z" id="Stroke-105" stroke="#CECECE" stroke-width="2" stroke-linecap="round" stroke-linejoin="round"></path>
                    <path d="M6.3104,50.6553143 L6.3104,70.3023347 C6.3104,75.4242939 10.4625633,79.5764571 15.5845224,79.5764571 L120.969992,79.5764571 C126.091951,79.5764571 130.243788,75.4242939 130.243788,70.3023347 L130.243788,50.6553143" id="Fill-107" fill="#FFFFFF"></path>
                    <path d="M120.969829,75.3735837 L15.5846857,75.3735837 C10.4624,75.3735837 6.31023673,71.2214204 6.31023673,66.0994612 L6.31023673,70.3025633 C6.31023673,75.4245224 10.4624,79.5766857 15.5846857,79.5766857 L120.969829,79.5766857 C126.091788,79.5766857 130.243951,75.4245224 130.243951,70.3025633 L130.243951,66.0994612 C130.243951,71.2214204 126.091788,75.3735837 120.969829,75.3735837" id="Fill-109" fill="#F4F4F4"></path>
                    <path d="M6.3104,50.6553143 L6.3104,70.3023347 C6.3104,75.4242939 10.4625633,79.5764571 15.5845224,79.5764571 L120.969992,79.5764571 C126.091951,79.5764571 130.243788,75.4242939 130.243788,70.3023347 L130.243788,50.6553143" id="Stroke-111" stroke="#CECECE" stroke-width="2" stroke-linecap="round" stroke-linejoin="round"></path>
                    <path d="M120.295739,55.9172571 L16.2588408,55.9172571 C14.9471673,55.9172571 13.8839837,54.8540735 13.8839837,53.5427265 L13.8839837,50.6552163 L122.670269,50.6552163 L122.670269,53.5427265 C122.670269,54.8540735 121.607412,55.9172571 120.295739,55.9172571" id="Fill-113" fill="#EFEFEF"></path>
                    <path d="M120.295739,55.9172571 L16.2588408,55.9172571 C14.9471673,55.9172571 13.8839837,54.8540735 13.8839837,53.5427265 L13.8839837,50.6552163 L122.670269,50.6552163 L122.670269,53.5427265 C122.670269,54.8540735 121.607412,55.9172571 120.295739,55.9172571 Z" id="Stroke-115" stroke="#CECECE" stroke-width="2" stroke-linecap="round" stroke-linejoin="round"></path>
                    <path d="M114.918171,50.6553143 L114.918171,55.9173551 L120.295804,55.9173551 C121.607151,55.9173551 122.670335,54.8541714 122.670335,53.542498 L122.670335,50.6553143 L114.918171,50.6553143 Z" id="Fill-117" fill="#EFEFEF"></path>
                    <path d="M114.918171,50.6553143 L114.918171,55.9173551 L120.295804,55.9173551 C121.607151,55.9173551 122.670335,54.8541714 122.670335,53.542498 L122.670335,50.6553143 L114.918171,50.6553143 Z" id="Stroke-119" stroke="#CECECE" stroke-width="2" stroke-linecap="round" stroke-linejoin="round"></path>
                    <path d="M109.594188,66.7903673 C109.594188,67.9358367 107.817861,67.9358367 107.817861,66.7903673 L107.817861,62.941551 C107.817861,61.7960816 109.594188,61.7960816 109.594188,62.941551 L109.594188,66.7903673 Z M110.416065,54.6457143 L107.288229,54.6457143 C106.322024,54.6457143 105.539331,55.4287347 105.539331,56.3946122 L105.539331,68.1062857 C105.539331,69.9178776 107.007739,71.3859592 108.819004,71.3859592 L108.88529,71.3859592 C110.696555,71.3859592 112.164963,69.9178776 112.164963,68.1062857 L112.164963,56.3946122 C112.164963,55.4287347 111.381943,54.6457143 110.416065,54.6457143 L110.416065,54.6457143 Z" id="Fill-121" fill="#EFEFEF"></path>
                    <path d="M109.594188,66.7903673 C109.594188,67.9358367 107.817861,67.9358367 107.817861,66.7903673 L107.817861,62.941551 C107.817861,61.7960816 109.594188,61.7960816 109.594188,62.941551 L109.594188,66.7903673 Z M110.416065,54.6457143 L107.288229,54.6457143 C106.322024,54.6457143 105.539331,55.4287347 105.539331,56.3946122 L105.539331,68.1062857 C105.539331,69.9178776 107.007739,71.3859592 108.819004,71.3859592 L108.88529,71.3859592 C110.696555,71.3859592 112.164963,69.9178776 112.164963,68.1062857 L112.164963,56.3946122 C112.164963,55.4287347 111.381943,54.6457143 110.416065,54.6457143 Z" id="Stroke-123" stroke="#CECECE" stroke-width="2" stroke-linecap="round" stroke-linejoin="round"></path>
                    <path d="M110.770841,53.0551837 L106.933453,53.0551837 C105.621127,53.0551837 104.557616,51.9913469 104.557616,50.6793469 L104.557616,50.6313469 C104.557616,49.3193469 105.621127,48.2555102 106.933453,48.2555102 L110.770841,48.2555102 C112.083167,48.2555102 113.146678,49.3193469 113.146678,50.6313469 L113.146678,50.6793469 C113.146678,51.9913469 112.083167,53.0551837 110.770841,53.0551837" id="Fill-125" fill="#EFEFEF"></path>
                    <path d="M110.770841,53.0551837 L106.933453,53.0551837 C105.621127,53.0551837 104.557616,51.9913469 104.557616,50.6793469 L104.557616,50.6313469 C104.557616,49.3193469 105.621127,48.2555102 106.933453,48.2555102 L110.770841,48.2555102 C112.083167,48.2555102 113.146678,49.3193469 113.146678,50.6313469 L113.146678,50.6793469 C113.146678,51.9913469 112.083167,53.0551837 110.770841,53.0551837 Z" id="Stroke-127" stroke="#CECECE" stroke-width="2" stroke-linecap="round" stroke-linejoin="round"></path>
                    <path d="M108.867788,50.5073633 L108.836114,50.5073633 C107.97342,50.5073633 107.273665,51.2071184 107.273665,52.0701388 L107.273665,55.9245061 C107.273665,56.7875265 107.97342,57.4872816 108.836114,57.4872816 L108.867788,57.4872816 C109.731135,57.4872816 110.430563,56.7875265 110.430563,55.9245061 L110.430563,52.0701388 C110.430563,51.2071184 109.731135,50.5073633 108.867788,50.5073633" id="Fill-129" fill="#EFEFEF"></path>
                    <path d="M108.867788,50.5073633 L108.836114,50.5073633 C107.97342,50.5073633 107.273665,51.2071184 107.273665,52.0701388 L107.273665,55.9245061 C107.273665,56.7875265 107.97342,57.4872816 108.836114,57.4872816 L108.867788,57.4872816 C109.731135,57.4872816 110.430563,56.7875265 110.430563,55.9245061 L110.430563,52.0701388 C110.430563,51.2071184 109.731135,50.5073633 108.867788,50.5073633 Z" id="Stroke-131" stroke="#CECECE" stroke-width="2" stroke-linecap="round" stroke-linejoin="round"></path>
                    <g id="Group-136" transform="translate(114.612245, 45.290776)">
                        <path d="M8.0581551,7.0869551 L8.0581551,2.4234449 C8.0581551,1.11209796 6.99497143,0.0489142857 5.68362449,0.0489142857 L0.305991837,0.0489142857 L0.305991837,7.0869551" id="Fill-133" fill="#EFEFEF"></path>
                        <path d="M8.0581551,7.0869551 L8.0581551,2.4234449 C8.0581551,1.11209796 6.99497143,0.0489142857 5.68362449,0.0489142857 L0.305991837,0.0489142857 L0.305991837,7.0869551" id="Stroke-135" stroke="#CECECE" stroke-width="4" stroke-linecap="round" stroke-linejoin="round"></path>
                    </g>
                    <path d="M21.8461061,50.6714122 L21.8461061,53.2862694" id="Stroke-137" stroke="#CECECE" stroke-width="2" stroke-linecap="round" stroke-linejoin="bevel"></path>
                    <path d="M32.0230857,50.6714122 L32.0230857,53.2862694" id="Stroke-139" stroke="#CECECE" stroke-width="2" stroke-linecap="round" stroke-linejoin="bevel"></path>
                    <path d="M42.0517878,50.6714122 L42.0517878,53.2862694" id="Stroke-141" stroke="#CECECE" stroke-width="2" stroke-linecap="round" stroke-linejoin="bevel"></path>
                    <path d="M52.2287673,50.6714122 L52.2287673,53.2862694" id="Stroke-143" stroke="#CECECE" stroke-width="2" stroke-linecap="round" stroke-linejoin="bevel"></path>
                    <path d="M62.6276898,50.6714122 L62.6276898,53.2862694" id="Stroke-145" stroke="#CECECE" stroke-width="2" stroke-linecap="round" stroke-linejoin="bevel"></path>
                    <path d="M72.8043429,50.6714122 L72.8043429,53.2862694" id="Stroke-147" stroke="#CECECE" stroke-width="2" stroke-linecap="round" stroke-linejoin="bevel"></path>
                    <path d="M82.8333388,50.6714122 L82.8333388,53.2862694" id="Stroke-149" stroke="#CECECE" stroke-width="2" stroke-linecap="round" stroke-linejoin="bevel"></path>
                    <path d="M93.0103184,50.6714122 L93.0103184,53.2862694" id="Stroke-151" stroke="#CECECE" stroke-width="2" stroke-linecap="round" stroke-linejoin="bevel"></path>
                    <path d="M27.0457143,50.6714122 L27.0457143,53.2862694" id="Stroke-153" stroke="#CECECE" stroke-width="2" stroke-linecap="round" stroke-linejoin="bevel"></path>
                    <path d="M37.2224,50.6714122 L37.2224,53.2862694" id="Stroke-155" stroke="#CECECE" stroke-width="2" stroke-linecap="round" stroke-linejoin="bevel"></path>
                    <path d="M47.2513959,50.6714122 L47.2513959,53.2862694" id="Stroke-157" stroke="#CECECE" stroke-width="2" stroke-linecap="round" stroke-linejoin="bevel"></path>
                    <path d="M57.428049,50.6714122 L57.428049,53.2862694" id="Stroke-159" stroke="#CECECE" stroke-width="2" stroke-linecap="round" stroke-linejoin="bevel"></path>
                    <path d="M67.8269714,50.6714122 L67.8269714,53.2862694" id="Stroke-161" stroke="#CECECE" stroke-width="2" stroke-linecap="round" stroke-linejoin="bevel"></path>
                    <path d="M78.003951,50.6714122 L78.003951,53.2862694" id="Stroke-163" stroke="#CECECE" stroke-width="2" stroke-linecap="round" stroke-linejoin="bevel"></path>
                    <path d="M88.0326531,50.6714122 L88.0326531,53.2862694" id="Stroke-165" stroke="#CECECE" stroke-width="2" stroke-linecap="round" stroke-linejoin="bevel"></path>
                    <path d="M98.2096327,50.6714122 L98.2096327,53.2862694" id="Stroke-167" stroke="#CECECE" stroke-width="2" stroke-linecap="round" stroke-linejoin="bevel"></path>
                    <path d="M102.969829,50.6714122 L102.969829,53.2862694" id="Stroke-169" stroke="#CECECE" stroke-width="2" stroke-linecap="round" stroke-linejoin="bevel"></path>
                    <path d="M0.000130612245,79.5765551 L136.554253,79.5765551" id="Stroke-171" stroke="#CECECE" stroke-width="2" stroke-linecap="round" stroke-linejoin="round"></path>
                </g>
            </g>
        </g>
    </g>
</svg>