<?xml version="1.0" encoding="UTF-8"?>
<svg width="159px" height="82px" viewBox="0 0 159 82" version="1.1" xmlns="http://www.w3.org/2000/svg" xmlns:xlink="http://www.w3.org/1999/xlink">
    <!-- Generator: Sketch 54.1 (76490) - https://sketchapp.com -->
    <title>MacBook Pro</title>
    <desc>Created with Sketch.</desc>
    <defs>
        <polygon id="path-1" points="0 79.6673333 159.063333 79.6673333 159.063333 0 0 0"></polygon>
    </defs>
    <g id="Page-1" stroke="none" stroke-width="1" fill="none" fill-rule="evenodd">
        <g id="Desktop-HD-Copy" transform="translate(-559.000000, -392.000000)">
            <g id="Dev" transform="translate(459.000000, 339.000000)">
                <g id="MacBook-Pro" transform="translate(100.000000, 55.000000)">
                    <path d="M131.943767,73.0231 L26.9197667,73.0231 L26.9197667,4.44543333 C26.9197667,2.35843333 28.6114333,0.666766667 30.6984333,0.666766667 L128.165433,0.666766667 C130.2521,0.666766667 131.943767,2.35843333 131.943767,4.44543333 L131.943767,73.0231 Z" id="Fill-1" fill="#FFFFFF"></path>
                    <path d="M131.943767,73.0231 L26.9197667,73.0231 L26.9197667,4.44543333 C26.9197667,2.35843333 28.6114333,0.666766667 30.6984333,0.666766667 L128.165433,0.666766667 C130.2521,0.666766667 131.943767,2.35843333 131.943767,4.44543333 L131.943767,73.0231 Z" id="Stroke-3" stroke="#CECECE" stroke-width="4" stroke-linecap="round" stroke-linejoin="round"></path>
                    <path d="M131.943767,73.0231 L26.9197667,73.0231 L26.9197667,4.44543333 C26.9197667,2.35843333 28.6114333,0.666766667 30.6984333,0.666766667 L128.165433,0.666766667 C130.2521,0.666766667 131.943767,2.35843333 131.943767,4.44543333 L131.943767,73.0231 Z" id="Fill-5" fill="#EFEFEF"></path>
                    <path d="M131.943767,73.0231 L26.9197667,73.0231 L26.9197667,4.44543333 C26.9197667,2.35843333 28.6114333,0.666766667 30.6984333,0.666766667 L128.165433,0.666766667 C130.2521,0.666766667 131.943767,2.35843333 131.943767,4.44543333 L131.943767,73.0231 Z" id="Stroke-7" stroke="#CECECE" stroke-width="4" stroke-linecap="round" stroke-linejoin="round"></path>
                    <mask id="mask-2" fill="white">
                        <use xlink:href="#path-1"></use>
                    </mask>
                    <g id="Clip-10"></g>
                    <polygon id="Fill-9" fill="#FFFFFF" mask="url(#mask-2)" points="32.2826667 68.107 126.580667 68.107 126.580667 5.58266667 32.2826667 5.58266667"></polygon>
                    <polygon id="Stroke-11" stroke="#CECECE" stroke-linecap="round" stroke-linejoin="round" mask="url(#mask-2)" points="32.2826667 68.107 126.580667 68.107 126.580667 5.58266667 32.2826667 5.58266667"></polygon>
                    <path d="M148.697333,77.4568333 L148.640333,77.4775 C146.024667,78.4338333 143.261667,78.9228333 140.477,78.9228333 L18.7086667,78.9228333 C16.2553333,78.9228333 13.817,78.5431667 11.48,77.7975 L10.2673333,77.4105 C9.19933333,77.0698333 8.47433333,76.0775 8.47433333,74.9561667 L8.47433333,73.0231667 L150.389333,73.0231667 L150.389333,75.0371667 C150.389333,76.1188333 149.713333,77.0855 148.697333,77.4568333" id="Fill-12" fill="#FFFFFF" mask="url(#mask-2)"></path>
                    <path d="M148.697333,77.4568333 L148.640333,77.4775 C146.024667,78.4338333 143.261667,78.9228333 140.477,78.9228333 L18.7086667,78.9228333 C16.2553333,78.9228333 13.817,78.5431667 11.48,77.7975 L10.2673333,77.4105 C9.19933333,77.0698333 8.47433333,76.0775 8.47433333,74.9561667 L8.47433333,73.0231667 L150.389333,73.0231667 L150.389333,75.0371667 C150.389333,76.1188333 149.713333,77.0855 148.697333,77.4568333 Z" id="Stroke-13" stroke="#CECECE" stroke-width="2" stroke-linecap="round" stroke-linejoin="round" mask="url(#mask-2)"></path>
                    <path d="M8.95953333,76.4544 C9.27453333,76.8947333 9.72553333,77.2377333 10.2675333,77.4107333 L11.4802,77.7974 C13.8172,78.5434 16.2555333,78.9230667 18.7085333,78.9230667 L140.476867,78.9230667 C143.261867,78.9230667 146.024867,78.4337333 148.6402,77.4777333 L148.6972,77.4567333 C149.227533,77.2630667 149.660533,76.9044 149.956867,76.4544 L8.95953333,76.4544 Z" id="Fill-14" fill="#FFFFFF" mask="url(#mask-2)"></path>
                    <path d="M8.95953333,76.4544 C9.27453333,76.8947333 9.72553333,77.2377333 10.2675333,77.4107333 L11.4802,77.7974 C13.8172,78.5434 16.2555333,78.9230667 18.7085333,78.9230667 L140.476867,78.9230667 C143.261867,78.9230667 146.024867,78.4337333 148.6402,77.4777333 L148.6972,77.4567333 C149.227533,77.2630667 149.660533,76.9044 149.956867,76.4544 L8.95953333,76.4544 Z" id="Stroke-15" stroke="#CECECE" stroke-width="2" stroke-linecap="round" stroke-linejoin="round" mask="url(#mask-2)"></path>
                    <polygon id="Fill-16" fill="#FFFFFF" mask="url(#mask-2)" points="32.2826667 9.165 126.580667 9.165 126.580667 5.58266667 32.2826667 5.58266667"></polygon>
                    <polygon id="Stroke-17" stroke="#CECECE" stroke-linecap="round" stroke-linejoin="round" mask="url(#mask-2)" points="32.2826667 9.165 126.580667 9.165 126.580667 5.58266667 32.2826667 5.58266667"></polygon>
                    <path d="M80.3135667,2.94643333 C80.3135667,3.41876667 79.9305667,3.80176667 79.4582333,3.80176667 C78.9859,3.80176667 78.6029,3.41876667 78.6029,2.94643333 C78.6029,2.4741 78.9859,2.0911 79.4582333,2.0911 C79.9305667,2.0911 80.3135667,2.4741 80.3135667,2.94643333" id="Fill-18" fill="#FFFFFF" mask="url(#mask-2)"></path>
                    <path d="M80.3135667,2.94643333 C80.3135667,3.41876667 79.9305667,3.80176667 79.4582333,3.80176667 C78.9859,3.80176667 78.6029,3.41876667 78.6029,2.94643333 C78.6029,2.4741 78.9859,2.0911 79.4582333,2.0911 C79.9305667,2.0911 80.3135667,2.4741 80.3135667,2.94643333 Z" id="Stroke-19" stroke="#CECECE" stroke-linecap="round" stroke-linejoin="round" mask="url(#mask-2)"></path>
                    <path d="M148.640333,77.4775 C146.024667,78.4338333 143.261667,78.9228333 140.477,78.9228333 L18.7086667,78.9228333 C16.2553333,78.9228333 13.817,78.5431667 11.48,77.7975 L10.2673333,77.4105 C9.19933333,77.0698333 8.47433333,76.0775 8.47433333,74.9561667 L8.47433333,73.0231667 L150.389333,73.0231667 L150.389333,75.0371667 C150.389333,76.1188333 149.713333,77.0855 148.697333,77.4568333 L148.640333,77.4775 Z" id="Fill-20" fill="#FFFFFF" mask="url(#mask-2)"></path>
                    <path d="M148.697333,77.4568333 L148.640333,77.4775 C146.024667,78.4338333 143.261667,78.9228333 140.477,78.9228333 L18.7086667,78.9228333 C16.2553333,78.9228333 13.817,78.5431667 11.48,77.7975 L10.2673333,77.4105 C9.19933333,77.0698333 8.47433333,76.0775 8.47433333,74.9561667 L8.47433333,73.0231667 L150.389333,73.0231667 L150.389333,75.0371667 C150.389333,76.1188333 149.713333,77.0855 148.697333,77.4568333 Z" id="Stroke-21" stroke="#CECECE" stroke-linecap="round" stroke-linejoin="round" mask="url(#mask-2)"></path>
                    <g id="Group-24" mask="url(#mask-2)">
                        <g transform="translate(139.000000, 74.334000)">
                            <path d="M0.0912333333,0.4653 L3.7119,0.4653" id="Fill-22" stroke="none" fill="#FFFFFF" fill-rule="evenodd"></path>
                            <path d="M0.0912333333,0.4653 L3.7119,0.4653" id="Stroke-23" stroke="#CECECE" stroke-width="1" fill="none" stroke-linecap="round" stroke-linejoin="round"></path>
                        </g>
                    </g>
                    <path d="M19.8340667,78.2646333 C19.8340667,78.5373 19.3920667,78.7583 18.8467333,78.7583 C18.3014,78.7583 17.8594,78.5373 17.8594,78.2646333 C17.8594,77.9919667 18.3014,77.7709667 18.8467333,77.7709667 C19.3920667,77.7709667 19.8340667,77.9919667 19.8340667,78.2646333" id="Fill-25" fill="#FFFFFF" mask="url(#mask-2)"></path>
                    <path d="M19.8340667,78.2646333 C19.8340667,78.5373 19.3920667,78.7583 18.8467333,78.7583 C18.3014,78.7583 17.8594,78.5373 17.8594,78.2646333 C17.8594,77.9919667 18.3014,77.7709667 18.8467333,77.7709667 C19.3920667,77.7709667 19.8340667,77.9919667 19.8340667,78.2646333 Z" id="Stroke-26" stroke="#CECECE" stroke-width="2" stroke-linecap="round" stroke-linejoin="round" mask="url(#mask-2)"></path>
                    <path d="M100.691967,78.2646333 C100.691967,78.5373 100.249967,78.7583 99.7046333,78.7583 C99.1593,78.7583 98.7173,78.5373 98.7173,78.2646333 C98.7173,77.9919667 99.1593,77.7709667 99.7046333,77.7709667 C100.249967,77.7709667 100.691967,77.9919667 100.691967,78.2646333" id="Fill-27" fill="#FFFFFF" mask="url(#mask-2)"></path>
                    <path d="M100.691967,78.2646333 C100.691967,78.5373 100.249967,78.7583 99.7046333,78.7583 C99.1593,78.7583 98.7173,78.5373 98.7173,78.2646333 C98.7173,77.9919667 99.1593,77.7709667 99.7046333,77.7709667 C100.249967,77.7709667 100.691967,77.9919667 100.691967,78.2646333 Z" id="Stroke-28" stroke="#CECECE" stroke-width="2" stroke-linecap="round" stroke-linejoin="round" mask="url(#mask-2)"></path>
                    <path d="M60.2082333,78.2646333 C60.2082333,78.5373 59.7662333,78.7583 59.2209,78.7583 C58.6755667,78.7583 58.2332333,78.5373 58.2332333,78.2646333 C58.2332333,77.9919667 58.6755667,77.7709667 59.2209,77.7709667 C59.7662333,77.7709667 60.2082333,77.9919667 60.2082333,78.2646333" id="Fill-29" fill="#FFFFFF" mask="url(#mask-2)"></path>
                    <path d="M60.2082333,78.2646333 C60.2082333,78.5373 59.7662333,78.7583 59.2209,78.7583 C58.6755667,78.7583 58.2332333,78.5373 58.2332333,78.2646333 C58.2332333,77.9919667 58.6755667,77.7709667 59.2209,77.7709667 C59.7662333,77.7709667 60.2082333,77.9919667 60.2082333,78.2646333 Z" id="Stroke-30" stroke="#CECECE" stroke-width="2" stroke-linecap="round" stroke-linejoin="round" mask="url(#mask-2)"></path>
                    <path d="M141.066167,78.2646333 C141.066167,78.5373 140.624167,78.7583 140.078833,78.7583 C139.5335,78.7583 139.091167,78.5373 139.091167,78.2646333 C139.091167,77.9919667 139.5335,77.7709667 140.078833,77.7709667 C140.624167,77.7709667 141.066167,77.9919667 141.066167,78.2646333" id="Fill-31" fill="#FFFFFF" mask="url(#mask-2)"></path>
                    <path d="M141.066167,78.2646333 C141.066167,78.5373 140.624167,78.7583 140.078833,78.7583 C139.5335,78.7583 139.091167,78.5373 139.091167,78.2646333 C139.091167,77.9919667 139.5335,77.7709667 140.078833,77.7709667 C140.624167,77.7709667 141.066167,77.9919667 141.066167,78.2646333 Z" id="Stroke-32" stroke="#CECECE" stroke-width="2" stroke-linecap="round" stroke-linejoin="round" mask="url(#mask-2)"></path>
                    <g id="Group-35" mask="url(#mask-2)">
                        <g transform="translate(38.000000, 7.334000)">
                            <path d="M0.318933333,0.06 L7.56326667,0.06" id="Fill-33" stroke="none" fill="#FFFFFF" fill-rule="evenodd"></path>
                            <path d="M0.318933333,0.06 L7.56326667,0.06" id="Stroke-34" stroke="#CECECE" stroke-width="1" fill="none" stroke-linecap="round" stroke-linejoin="round"></path>
                        </g>
                    </g>
                    <g id="Group-38" mask="url(#mask-2)">
                        <g transform="translate(120.000000, 7.334000)">
                            <path d="M0.275633333,0.06 L3.89796667,0.06" id="Fill-36" stroke="none" fill="#FFFFFF" fill-rule="evenodd"></path>
                            <path d="M0.275633333,0.06 L3.89796667,0.06" id="Stroke-37" stroke="#CECECE" stroke-width="1" fill="none" stroke-linecap="round" stroke-linejoin="round"></path>
                        </g>
                    </g>
                    <g id="Group-41" mask="url(#mask-2)">
                        <g transform="translate(114.000000, 7.334000)">
                            <path d="M0.131733333,0.06 L3.75406667,0.06" id="Fill-39" stroke="none" fill="#FFFFFF" fill-rule="evenodd"></path>
                            <path d="M0.131733333,0.06 L3.75406667,0.06" id="Stroke-40" stroke="#CECECE" stroke-width="1" fill="none" stroke-linecap="round" stroke-linejoin="round"></path>
                        </g>
                    </g>
                    <g id="Group-44" mask="url(#mask-2)">
                        <g transform="translate(108.000000, 7.334000)">
                            <path d="M0.207266667,0.06 L3.8296,0.06" id="Fill-42" stroke="none" fill="#FFFFFF" fill-rule="evenodd"></path>
                            <path d="M0.207266667,0.06 L3.8296,0.06" id="Stroke-43" stroke="#CECECE" stroke-width="1" fill="none" stroke-linecap="round" stroke-linejoin="round"></path>
                        </g>
                    </g>
                    <path d="M50.3364667,62.0914667 C48.9608,62.0914667 47.8454667,60.9778 47.8454667,59.6038 L47.8454667,18.2298 C47.8454667,16.8558 48.9608,15.7421333 50.3364667,15.7421333 L108.525133,15.7421333 C109.9008,15.7421333 111.016133,16.8558 111.016133,18.2298 L111.016133,59.6038 C111.016133,60.9778 109.9008,62.0914667 108.525133,62.0914667 L50.3364667,62.0914667 Z" id="Fill-45" fill="#DBDBDB" mask="url(#mask-2)"></path>
                    <path d="M80.3747667,61.9412333 L80.3747667,52.0712333 C80.3747667,51.5949 79.9881,51.2092333 79.5114333,51.2092333 L59.3434333,51.2092333 C58.8664333,51.2092333 58.4797667,51.5949 58.4797667,52.0712333 L58.4797667,61.9412333 L80.3747667,61.9412333 Z" id="Fill-49" fill="#FCFCFC" mask="url(#mask-2)"></path>
                    <path d="M79.5114667,44.2617 L59.3434667,44.2617 C58.8664667,44.2617 58.4798,43.8757 58.4798,43.3997 L58.4798,29.0593667 C58.4798,28.5830333 58.8664667,28.1970333 59.3434667,28.1970333 L79.5114667,28.1970333 C79.9881333,28.1970333 80.3748,28.5830333 80.3748,29.0593667 L80.3748,43.3997 C80.3748,43.8757 79.9881333,44.2617 79.5114667,44.2617" id="Fill-47" fill="#FCFCFC" mask="url(#mask-2)"></path>
                    <path d="M108.525133,62.0914667 L50.3364667,62.0914667 C48.9608,62.0914667 47.8454667,60.9778 47.8454667,59.6038 L47.8454667,18.2298 C47.8454667,16.8558 48.9608,15.7421333 50.3364667,15.7421333 L108.525133,15.7421333 C109.9008,15.7421333 111.016133,16.8558 111.016133,18.2298 L111.016133,59.6038 C111.016133,60.9778 109.9008,62.0914667 108.525133,62.0914667 Z" id="Stroke-46" stroke="#CECECE" stroke-linecap="round" stroke-linejoin="round" mask="url(#mask-2)"></path>
                    <path d="M111.0162,21.1617667 L111.0162,18.2297667 C111.0162,16.8561 109.900867,15.7421 108.5252,15.7421 L50.3362,15.7421 C48.9608667,15.7421 47.8455333,16.8561 47.8455333,18.2297667 L47.8455333,21.1617667 L111.0162,21.1617667 Z" id="Fill-51" fill="#FCFCFC" mask="url(#mask-2)"></path>
                    <path d="M111.0162,21.1617667 L111.0162,18.2297667 C111.0162,16.8561 109.900867,15.7421 108.5252,15.7421 L50.3362,15.7421 C48.9608667,15.7421 47.8455333,16.8561 47.8455333,18.2297667 L47.8455333,21.1617667 L111.0162,21.1617667 Z" id="Stroke-52" stroke="#CECECE" stroke-linecap="round" stroke-linejoin="round" mask="url(#mask-2)"></path>
                    <path d="M92.7549667,36.402 L103.880967,36.402" id="Stroke-53" stroke="#FFFFFF" stroke-linecap="round" stroke-linejoin="round" mask="url(#mask-2)"></path>
                    <path d="M90.7284333,41.8517 L103.8811,41.8517" id="Stroke-54" stroke="#FFFFFF" stroke-linecap="round" stroke-linejoin="round" mask="url(#mask-2)"></path>
                    <path d="M87.4530333,31.2270333 L103.881033,31.2270333" id="Stroke-55" stroke="#FFFFFF" stroke-linecap="round" stroke-linejoin="round" mask="url(#mask-2)"></path>
                    <path d="M87.4530333,54.3898 L103.881033,54.3898" id="Stroke-56" stroke="#FFFFFF" stroke-linecap="round" stroke-linejoin="round" mask="url(#mask-2)"></path>
                    <path d="M90.7284333,58.9677667 L103.8811,58.9677667" id="Stroke-57" stroke="#FFFFFF" stroke-linecap="round" stroke-linejoin="round" mask="url(#mask-2)"></path>
                    <g id="Group-60" mask="url(#mask-2)">
                        <g transform="translate(69.000000, 73.334000)">
                            <path d="M21.0495667,0.324666667 C21.0495667,0.324666667 21.4329,1.608 19.1622333,1.608 L2.0289,1.608 C-0.241766667,1.608 0.141566667,0.324666667 0.141566667,0.324666667" id="Fill-58" stroke="none" fill="#FFFFFF" fill-rule="evenodd"></path>
                            <path d="M21.0495667,0.324666667 C21.0495667,0.324666667 21.4329,1.608 19.1622333,1.608 L2.0289,1.608 C-0.241766667,1.608 0.141566667,0.324666667 0.141566667,0.324666667" id="Stroke-59" stroke="#CECECE" stroke-width="1" fill="none" stroke-linecap="round" stroke-linejoin="round"></path>
                        </g>
                    </g>
                    <path d="M0.666733333,79.0006333 L158.3964,79.0006333" id="Stroke-61" stroke="#CECECE" stroke-linecap="round" stroke-linejoin="round" mask="url(#mask-2)"></path>
                </g>
            </g>
        </g>
    </g>
</svg>