<svg id="Calque_1" data-name="Calque 1" xmlns="http://www.w3.org/2000/svg" viewBox="0 0 372.78 372.78"><title>Logo</title><circle cx="186.39" cy="186.39" r="186.39" style="fill:#fff"/><path d="M306,122.32c89.35,0,162.05,72.7,162.05,162.05s-72.7,162-162,162-162-72.69-162-162,72.7-162,162.05-162M306,98c-102.94,0-186.39,83.45-186.39,186.39S203.06,470.76,306,470.76s186.39-83.45,186.39-186.39S408.94,98,306,98Z" transform="translate(-119.61 -97.98)" style="fill:#222"/><path d="M259.08,363.87c-24.42,0-49.57-16.35-51.47-48.35q-.31-5.32-.32-11.11a12.18,12.18,0,0,1,24.35,0q0,5,.27,9.67c1.15,19.35,15.67,25.79,28.07,25.43,13.53-.4,27.19-9.12,27.19-27.69V216.13a12.18,12.18,0,1,1,24.35,0v95.69c0,33.16-25.57,51.28-50.82,52Z" transform="translate(-119.61 -97.98)" style="fill:#222"/><path d="M391,300.87a26.25,26.25,0,0,0-24.89-26.2v-.07H338.45v52.55h27.66v-.07A26.26,26.26,0,0,0,391,300.87Z" transform="translate(-119.61 -97.98)" style="fill:#f3e748"/><path d="M352.28,224.45H338.45V252.1h13.83a13.83,13.83,0,1,0,0-27.65Z" transform="translate(-119.61 -97.98)" style="fill:#222"/></svg>